<svg xmlns="http://www.w3.org/2000/svg" viewBox="0 0 64 64" role="img" aria-label="おそうじのスギハラ">
  <rect width="64" height="64" rx="16" fill="#0f8b8d"/>
  <path fill="#ffffff" d="M24.8 42.8c-3.7 0-6.8-1-9.3-3l3.1-5.2c2 1.6 4.2 2.4 6.5 2.4 1.2 0 2.1-.2 2.7-.6.7-.4 1-1 1-1.7 0-.9-.5-1.5-1.5-2-.9-.4-2.3-.9-4-1.4-2.1-.6-3.8-1.5-5-2.6-1.2-1.1-1.8-2.7-1.8-4.8 0-2.7 1-4.8 3.1-6.3 2-1.5 4.6-2.2 7.7-2.2 3.3 0 6.1.8 8.4 2.5L32.9 23c-1.8-1.2-3.6-1.8-5.5-1.8-2.3 0-3.5.7-3.5 2 0 .8.4 1.3 1.3 1.8.9.4 2.2.8 4 1.3 2.3.7 4.1 1.6 5.3 2.8 1.2 1.2 1.8 2.8 1.8 5 0 2.7-1 4.8-3.1 6.4-2 1.5-4.8 2.3-8.4 2.3Zm21.7-.4h-6.9V15.8h6.9v26.6Z"/>
</svg>
